# xmcd
#
# Track frame offsets:
# 150
# 19437
# 41337
# 60053
# 84983
# 106824
# 129168
# 145987
# 163125
# 176974
# 192116
# 209589
# 230360
# 260509
# 292995
#
# Disc length: 4167 seconds
#
#
# Revision: 0
# Processed by: cddbd v1.5.2PL0 Copyright (c) Steve Scherf et al.
# Submitted via: FreeRIP 2.96 
#
DISCID=cc10450f
DTITLE=BLACK FUNKY, ESSENTIAL 80'S
DYEAR=1900
DGENRE=
TTITLE0=ODYSSEY, INSIDE OUT
TTITLE1=DONNA ALLEN, JOY AND PAIN
TTITLE2=JUNIOR, MAMA USED TO SAY
TTITLE3=YARBROUGH and PEOPLE, DON'T STOP THE MUSIC
TTITLE4=TIMEX SOCIAL CLUB, RUMOURS
TTITLE5=CLUB NOUVEAU, LEAN ON ME
TTITLE6=SHARON BROWN, I SPECIALISE IN LOVE
TTITLE7=TIMMY THOMAS, WHY CAN'T WE LIVE TOGETHER
TTITLE8=THE COOL NOTES, SPEND THE NIGHTS
TTITLE9=DAVID GRANT, WATCHING YOU WATCHING ME
TTITLE10=RUBY TURNER and JONATHAN BUTLER, IF YOU'RE READY
TTITLE11=POSITIVE FORCE, WE GOT THE FUNK
TTITLE12=YARBROUGH and PEOPLE, DON'T WASTE YOUR TIME
TTITLE13=OLIVERCHEATHAM, GET DOWN SATURDAY NIGHT
TTITLE14=DELEGATION, PUT A LITTLE LOVE ON ME
EXTD=
EXTT0=
EXTT1=
EXTT2=
EXTT3=
EXTT4=
EXTT5=
EXTT6=
EXTT7=
EXTT8=
EXTT9=
EXTT10=
EXTT11=
EXTT12=
EXTT13=
EXTT14=
PLAYORDER=
